<svg width="45" height="45" viewBox="0 0 45 45" fill="none" xmlns="http://www.w3.org/2000/svg">
<g clip-path="url(#clip0_138_90)">
<path d="M15 16.5C15 12.3579 18.3579 9 22.5 9C26.6421 9 30 12.3579 30 16.5C30 20.6421 26.6421 24 22.5 24C18.3579 24 15 20.6421 15 16.5Z" fill="white"/>
<path fill-rule="evenodd" clip-rule="evenodd" d="M22.5 0C10.0736 0 0 10.0736 0 22.5C0 34.9263 10.0736 45 22.5 45C34.9263 45 45 34.9263 45 22.5C45 10.0736 34.9263 0 22.5 0ZM3 22.5C3 11.7304 11.7304 3 22.5 3C33.2697 3 42 11.7304 42 22.5C42 28.0487 39.6825 33.0561 35.9625 36.6072C35.5095 31.2258 30.9984 27 25.5 27H19.5C14.0017 27 9.49035 31.2258 9.03741 36.6072C5.31753 33.0561 3 28.0487 3 22.5Z" fill="white"/>
</g>
<defs>
<clipPath id="clip0_138_90">
<rect width="45" height="45" fill="white"/>
</clipPath>
</defs>
</svg>
