<svg width="28" height="32" viewBox="0 0 28 32" fill="none" xmlns="http://www.w3.org/2000/svg">
<path d="M14.2911 1.75833C14.6994 1.75833 14.8744 1.93333 14.8744 1.93333V12.9C14.8744 12.9583 14.6411 13.1333 14.2911 13.1333H14.2327C13.8827 13.1333 13.7077 12.9583 13.6494 12.9583V1.93333C13.7077 1.875 13.9411 1.75833 14.2911 1.75833Z" fill="black" stroke="white" stroke-width="3" stroke-miterlimit="10"/>
<path d="M13.9997 30.4C7.23307 30.4 1.69141 24.8583 1.69141 18.0917C1.69141 13.25 4.19974 9.05001 8.22474 7.00834C8.28307 7.00834 8.34141 6.95001 8.39974 6.95001C8.45807 6.95001 8.45807 6.95001 8.5164 6.95001C8.63307 7.00835 8.69141 7.06668 8.74974 7.18334C8.80807 7.30001 8.80807 7.41668 8.74974 7.47501C8.69141 7.59168 8.63307 7.65001 8.5164 7.70835C4.78307 9.57501 2.44974 13.5417 2.44974 18.0333C2.44974 24.3917 7.58307 29.525 13.9414 29.525C20.2997 29.525 25.4331 24.3917 25.4331 18.0333C25.4331 13.5417 23.0997 9.63334 19.4247 7.70835C19.2497 7.59168 19.1331 7.35834 19.2497 7.18334C19.3664 7.00834 19.5997 6.89168 19.7747 7.00834C23.7414 9.05001 26.2497 13.25 26.2497 18.0333C26.3081 24.9167 20.7664 30.4 13.9997 30.4Z" fill="black" stroke="white" stroke-width="3" stroke-miterlimit="10"/>
</svg>
